<?xml version="1.0" encoding="UTF-8" standalone="no"?><!DOCTYPE svg PUBLIC "-//W3C//DTD SVG 1.1//EN" "http://www.w3.org/Graphics/SVG/1.1/DTD/svg11.dtd"><svg width="100%" height="100%" viewBox="0 0 2380 2355" version="1.1" xmlns="http://www.w3.org/2000/svg" xmlns:xlink="http://www.w3.org/1999/xlink" xml:space="preserve" xmlns:serif="http://www.serif.com/" style="fill-rule:evenodd;clip-rule:evenodd;stroke-linejoin:round;stroke-miterlimit:2;"><g><path d="M1229.167,2350l-1017.123,0c-117.03,0 -212.044,-95.014 -212.044,-212.044l0,-1925.912c0,-117.03 95.014,-212.044 212.044,-212.044l1617.579,0c117.03,0 212.044,95.014 212.044,212.044l0,449.726c0,9.444 -3.269,18.598 -9.251,25.906c-54.13,66.128 -327.451,400.031 -327.451,400.031c-99.833,-534.457 -782.731,-760.452 -1183.176,-363.582c-178.797,177.201 -233.246,428.844 -191.138,613.064c86.974,380.502 557.275,561.794 553.015,558.819c-0.036,-0.013 -0.077,-0.001 -0.1,0.03c-0.023,0.031 -0.023,0.073 0.001,0.104c9.999,13.208 337.266,445.525 337.266,445.525l8.333,8.333Zm498.306,-2201.22c-103.485,0 -118.095,154.956 -17.598,175.575c53.779,11.034 104.963,-32.124 104.963,-86.886c0,-48.059 -40.292,-88.689 -87.365,-88.689Zm-711.77,0c-103.485,0 -118.095,154.956 -17.598,175.575c53.779,11.034 104.963,-32.124 104.963,-86.886c-0,-48.059 -40.292,-88.689 -87.365,-88.689Zm357.04,0c-103.485,0 -118.095,154.956 -17.598,175.575c53.779,11.034 104.963,-32.124 104.963,-86.886c0,-48.059 -40.292,-88.689 -87.365,-88.689Zm668.923,1124.753l0,864.423c0,117.03 -95.014,212.044 -212.044,212.044l-379.623,0l591.667,-1076.467Z" style="fill:#fea638;"/><path d="M587.5,895.833c0,0 456.505,25.393 416.667,512.5c0,0 -58.333,-165.278 -179.167,-258.333c-15.406,-11.864 172.328,247.801 179.167,375c0,0 25.492,-259.773 170.833,-408.333c17.534,-17.922 -70.784,18.542 -129.167,154.167c0,0 -81.066,-386.062 358.333,-454.167c0,0 43.05,323.602 -250,454.167c-51.383,22.893 -72.231,39.005 -87.5,95.833c-15.269,56.829 -34.398,94.838 -33.333,279.167l-54.167,0c0,0 3.589,-237.83 -125,-283.333c-128.589,-45.503 -293.224,-197.589 -266.667,-466.667Z" style="fill:#6ba626;"/><path d="M808.333,1625l512.5,304.167c0,0 582.507,-958.312 1058.333,-1262.5c0,0 -334.221,414.613 -587.5,883.333c-253.279,468.72 -420.833,804.167 -420.833,804.167c0,0 -254.762,-216.166 -562.5,-729.167Z" style="fill:#6aa524;"/></g></svg>